<svg width="400" height="400" viewBox="0 0 400 400" fill="none" xmlns="http://www.w3.org/2000/svg">
<path d="M69.6769 182.147C58.6363 213.782 143.209 330.935 199.481 313.518M263.877 294.637L134.548 332.559M134.548 332.559L133.636 332.827M134.548 332.559C134.244 332.651 133.94 332.74 133.636 332.827M133.636 332.827L37.15 361.119C27.5838 364.081 18.6096 355.124 21.577 345.577L49.9733 249.106M133.636 332.827C79.4952 348.268 41.8485 281.669 49.9733 249.106M49.9733 249.106L50.6978 246.644M49.9733 249.106C50.1839 248.262 50.4252 247.441 50.6978 246.644M50.6978 246.644L88.3768 118.637" stroke="#F6AED5" stroke-width="12"/>
<path d="M69.6769 182.147C58.6363 213.782 143.209 330.935 199.481 313.518M263.877 294.637L134.548 332.559M134.548 332.559L133.636 332.827M134.548 332.559C134.244 332.651 133.94 332.74 133.636 332.827M133.636 332.827L37.15 361.119C27.5838 364.081 18.6096 355.124 21.577 345.577M50.6978 246.644L88.3768 118.637" stroke="#6C8DFC" stroke-width="12"/>
<path d="M134.548 332.56L133.636 332.828M134.548 332.56C134.244 332.652 133.94 332.741 133.636 332.828M134.548 332.56L150.024 328.03M133.636 332.828L37.15 361.12C27.5838 364.081 18.6096 355.125 21.577 345.578" stroke="#AAE3C4" stroke-width="12" stroke-linecap="round"/>
<path d="M35 300.363L88.3767 119" stroke="#0A41FA" stroke-width="12" stroke-linecap="round"/>
<path d="M272.911 290.028C289.893 273.08 263.342 219.103 213.608 169.467C163.874 119.831 109.79 93.3326 92.8081 110.281C75.8261 127.23 102.377 181.207 152.111 230.843C201.845 280.478 255.929 306.977 272.911 290.028Z" stroke="#0A41FA" stroke-width="12"/>
<path d="M181 166C190.5 150.13 207.66 160.4 217.16 144.52C226.66 128.64 209.5 118.38 219 102.5C228.5 86.62 245.66 96.89 255.16 81.02C264.66 65.15 247.5 54.87 257 39" stroke="#1AB96D" stroke-width="12" stroke-miterlimit="10" stroke-linecap="round"/>
<path d="M264 178.27C281.41 162.58 294.8 177.44 312.21 161.76C329.63 146.07 316.24 131.21 333.66 115.52C351.08 99.83 364.46 114.69 381.88 99" stroke="#F6AED5" stroke-width="12" stroke-miterlimit="10" stroke-linecap="round"/>
<path d="M166.79 46C176.79 94 142 138.99 142 138.99" stroke="#CCC7FF" stroke-width="12" stroke-miterlimit="10" stroke-linecap="round"/>
<path d="M238 247.03C293 200.03 351 231.03 351 231.03" stroke="#AAE3C4" stroke-width="12" stroke-miterlimit="10" stroke-linecap="round"/>
<path d="M334.119 189.161C338.198 189.161 341.505 185.861 341.505 181.79C341.505 177.719 338.198 174.418 334.119 174.418C330.04 174.418 326.733 177.719 326.733 181.79C326.733 185.861 330.04 189.161 334.119 189.161Z" fill="#0A41FA"/>
<path d="M301.213 275.18C305.292 275.18 308.599 271.88 308.599 267.809C308.599 263.738 305.292 260.438 301.213 260.438C297.134 260.438 293.827 263.738 293.827 267.809C293.827 271.88 297.134 275.18 301.213 275.18Z" fill="#6C8DFC"/>
<path d="M369.115 212.62C373.194 212.62 376.501 209.32 376.501 205.249C376.501 201.178 373.194 197.878 369.115 197.878C365.036 197.878 361.729 201.178 361.729 205.249C361.729 209.32 365.036 212.62 369.115 212.62Z" fill="#0A41FA"/>
<path d="M309.046 110.966C313.126 110.966 316.432 107.666 316.432 103.595C316.432 99.5236 313.126 96.2234 309.046 96.2234C304.967 96.2234 301.661 99.5236 301.661 103.595C301.661 107.666 304.967 110.966 309.046 110.966Z" fill="#6C8DFC"/>
<path d="M200.396 56.7425C204.475 56.7425 207.782 53.4423 207.782 49.3712C207.782 45.3002 204.475 42 200.396 42C196.317 42 193.01 45.3002 193.01 49.3712C193.01 53.4423 196.317 56.7425 200.396 56.7425Z" fill="#0A41FA"/>
<path d="M251.584 120.347C255.663 120.347 258.97 117.047 258.97 112.976C258.97 108.905 255.663 105.604 251.584 105.604C247.505 105.604 244.198 108.905 244.198 112.976C244.198 117.047 247.505 120.347 251.584 120.347Z" fill="#0A41FA"/>
<path d="M195.695 211.578C199.774 211.578 203.081 208.278 203.081 204.207C203.081 200.136 199.774 196.835 195.695 196.835C191.616 196.835 188.31 200.136 188.31 204.207C188.31 208.278 191.616 211.578 195.695 211.578Z" fill="#6C8DFC"/>
<path d="M118.386 91.6771C122.465 91.6771 125.772 88.3768 125.772 84.3058C125.772 80.2348 122.465 76.9346 118.386 76.9346C114.307 76.9346 111 80.2348 111 84.3058C111 88.3768 114.307 91.6771 118.386 91.6771Z" fill="#F6AED5"/>
</svg>
