<svg width="400" height="400" viewBox="0 0 400 400" fill="none" xmlns="http://www.w3.org/2000/svg">
<path d="M274.14 301.898H168.012" stroke="#0A41FA" stroke-width="12" stroke-linecap="round"/>
<path d="M337.52 210.414C347.727 219.406 354.433 232.13 355.33 246.17C357.038 272.721 337.563 297.237 310.1 301.86H274.139" stroke="#6C8DFC" stroke-width="12" stroke-linecap="round"/>
<path d="M246.208 104.887C278.411 120.877 300.449 156.59 298.869 196.715C313.646 196.078 327.313 201.423 337.52 210.457" stroke="#1AB96D" stroke-width="12" stroke-linecap="round"/>
<path d="M75.5417 186.276C86.0909 178.938 98.9464 174.315 112.955 173.721C125.597 118.752 180.308 86.3046 228.954 98.4776C234.976 100.005 240.741 102.125 246.251 104.882" stroke="#CCC7FF" stroke-width="12" stroke-linecap="round"/>
<path d="M71.9539 290.408C56.1514 277.895 46.4991 259.148 46.5418 239.425C46.6272 218.218 57.9452 198.495 75.5414 186.279" stroke="#F6AED5" stroke-width="12" stroke-miterlimit="10" stroke-linecap="round"/>
<path d="M169.952 301.914C145.993 301.805 122.077 301.697 98.1175 301.588C88.6186 299.419 80.0951 296.41 72.9286 291.203" stroke="#0A41FA" stroke-width="12" stroke-linecap="round"/>
<path d="M154.429 213.711L187.694 247.346L247.571 186.803" stroke="#0A41FA" stroke-width="12" stroke-linecap="round"/>
</svg>
