<svg width="400" height="400" viewBox="0 0 400 400" fill="none" xmlns="http://www.w3.org/2000/svg">
<g clip-path="url(#clip0_3940_737)">
<path d="M172.955 253.972C168.014 259.391 166.131 260.186 166.131 260.186C153.679 270.498 134.278 272.16 113.623 262.295C112.654 261.839 111.694 261.363 110.744 260.868C80.3406 245.041 59.764 210.111 64.5115 180.513C65.9163 170.136 70.6613 161.516 77.4845 155.363L91.8705 143.827" stroke="#0332FF" stroke-width="12" stroke-miterlimit="10" stroke-linecap="round" stroke-linejoin="round"/>
<path d="M146.657 141.899C154.126 145.595 161.012 150.436 167.1 156.071C186.864 174.363 198.223 201.02 193.861 224.01C188.155 254.082 158.463 265.07 127.397 249.36C109.242 240.378 94.5355 224.629 86.3478 207.163C80.231 194.114 77.7525 180.108 80.1925 167.249C86.2795 135.169 114.956 126.843 146.657 141.899Z" stroke="#0332FF" stroke-width="12" stroke-miterlimit="10" stroke-linecap="round" stroke-linejoin="round"/>
<path d="M166.131 260.187C162.68 263.045 158.694 265.239 154.297 266.706C142.828 270.534 128.553 269.426 113.623 262.296C112.654 261.839 111.695 261.363 110.744 260.869C80.3409 245.041 59.7643 210.111 64.5118 180.513C65.9166 170.137 70.6616 161.517 77.4848 155.363L91.8708 143.827" stroke="#0332FF" stroke-width="12" stroke-miterlimit="10" stroke-linecap="round" stroke-linejoin="round"/>
<path d="M193.861 224.01C198.223 201.02 186.864 174.363 167.1 156.071C161.012 150.436 154.126 145.595 146.657 141.899C114.956 126.843 86.2795 135.169 80.1925 167.249C77.7525 180.108 80.231 194.114 86.3478 207.163" stroke="#AAE3C4" stroke-width="12" stroke-miterlimit="10" stroke-linecap="round" stroke-linejoin="round"/>
<path d="M113.623 262.296C112.654 261.84 111.694 261.364 110.744 260.869C80.3408 245.042 59.7642 210.112 64.5117 180.514C65.9165 170.137 70.6615 161.517 77.4847 155.364L91.8707 143.828" stroke="#F6AED5" stroke-width="12" stroke-miterlimit="10" stroke-linecap="round" stroke-linejoin="round"/>
<path d="M127.397 249.36C109.242 240.377 94.5354 224.628 86.3477 207.162C80.231 194.114 77.7524 180.108 80.1924 167.248C86.2794 135.169 114.956 126.842 146.657 141.899C154.126 145.594 161.012 150.435 167.1 156.07" stroke="#F6AED5" stroke-width="12" stroke-miterlimit="10" stroke-linecap="round" stroke-linejoin="round"/>
<path d="M113.623 262.296C112.654 261.84 111.694 261.364 110.744 260.869C80.3408 245.042 59.7642 210.112 64.5117 180.514C65.9165 170.137 70.6615 161.517 77.4847 155.364L91.8707 143.828" stroke="#0332FF" stroke-width="12" stroke-miterlimit="10" stroke-linecap="round" stroke-linejoin="round"/>
<path d="M146.656 141.899C114.956 126.842 86.2792 135.169 80.1922 167.248C77.7522 180.107 80.2308 194.114 86.3475 207.162" stroke="#587DFF" stroke-width="12" stroke-miterlimit="10" stroke-linecap="round" stroke-linejoin="round"/>
<path d="M113.622 262.296C112.654 261.839 111.694 261.363 110.744 260.869C80.3404 245.041 59.7638 210.111 64.5114 180.513" stroke="#0332FF" stroke-width="12" stroke-miterlimit="10" stroke-linecap="round" stroke-linejoin="round"/>
<path d="M324.285 91.5658C326.918 98.4109 326.785 100.45 326.785 100.45C330.428 116.202 323.225 134.293 305.154 148.343C304.312 149.004 303.457 149.649 302.589 150.277C274.821 170.372 234.374 173.126 210.038 155.626C201.389 149.722 195.807 141.619 193.361 132.763L189.49 114.734" stroke="#0332FF" stroke-width="12" stroke-miterlimit="10" stroke-linecap="round" stroke-linejoin="round"/>
<path d="M212.302 64.8853C218.951 59.8619 226.364 55.8735 234.129 52.9536C259.335 43.475 288.257 45.2576 306.859 59.4544C331.191 78.0244 327.717 109.493 299.757 130.233C283.595 142.443 262.927 148.538 243.644 148.037C229.238 147.662 215.605 143.605 205.2 135.664C179.244 115.855 184.643 86.4854 212.302 64.8853Z" stroke="#0332FF" stroke-width="12" stroke-miterlimit="10" stroke-linecap="round" stroke-linejoin="round"/>
<path d="M326.785 100.451C327.795 104.817 327.971 109.363 327.314 113.952C325.6 125.921 318.216 138.187 305.154 148.343C304.312 149.005 303.457 149.65 302.589 150.278C274.821 170.373 234.374 173.126 210.037 155.626C201.389 149.723 195.806 141.62 193.361 132.763L189.489 114.734" stroke="#0332FF" stroke-width="12" stroke-miterlimit="10" stroke-linecap="round" stroke-linejoin="round"/>
<path d="M306.859 59.4544C288.257 45.2577 259.335 43.4751 234.129 52.9536C226.364 55.8735 218.951 59.862 212.302 64.8854C184.643 86.4854 179.244 115.855 205.2 135.664C215.605 143.605 229.238 147.662 243.644 148.037" stroke="#AAE3C4" stroke-width="12" stroke-miterlimit="10" stroke-linecap="round" stroke-linejoin="round"/>
<path d="M305.154 148.343C304.312 149.004 303.456 149.649 302.589 150.277C274.82 170.373 234.374 173.126 210.037 155.626C201.388 149.722 195.806 141.619 193.36 132.763L189.489 114.734" stroke="#F6AED5" stroke-width="12" stroke-miterlimit="10" stroke-linecap="round" stroke-linejoin="round"/>
<path d="M299.757 130.234C283.595 142.444 262.928 148.54 243.644 148.038C229.238 147.663 215.605 143.606 205.2 135.665C179.244 115.856 184.643 86.4866 212.302 64.8865C218.952 59.8632 226.364 55.8747 234.129 52.9548" stroke="#587DFF" stroke-width="12" stroke-miterlimit="10" stroke-linecap="round" stroke-linejoin="round"/>
<path d="M305.154 148.343C304.312 149.004 303.456 149.649 302.589 150.277C274.82 170.373 234.374 173.126 210.037 155.626C201.388 149.722 195.806 141.619 193.36 132.763L189.489 114.734" stroke="#F6AED5" stroke-width="12" stroke-miterlimit="10" stroke-linecap="round" stroke-linejoin="round"/>
<path d="M212.302 64.8859C184.643 86.4859 179.244 115.855 205.2 135.665C215.605 143.606 229.238 147.662 243.644 148.037" stroke="#F6AED5" stroke-width="12" stroke-miterlimit="10" stroke-linecap="round" stroke-linejoin="round"/>
<path d="M305.154 148.343C304.312 149.004 303.456 149.649 302.589 150.277C274.821 170.373 234.374 173.126 210.037 155.626" stroke="#587DFF" stroke-width="12" stroke-miterlimit="10" stroke-linecap="round" stroke-linejoin="round"/>
<path d="M204.551 278.762C208.487 263.686 216.802 249.809 227.488 239.002C240.825 225.514 257.856 216.81 274.676 216.532C290.53 216.269 302.636 223.423 309.285 235.071C315.341 245.68 316.87 260.017 312.582 275.873C303.734 309.767 272.753 337.602 242.457 338.104C210.14 338.639 196.316 312.511 204.551 278.762Z" stroke="#0332FF" stroke-width="12" stroke-miterlimit="10" stroke-linecap="round" stroke-linejoin="round"/>
<path d="M301.465 225.298C306.353 229.96 318.079 238.683 318.079 238.683C330.162 248.782 335.103 267.031 329.153 288.491C320.137 321.673 289.048 349.049 258.787 349.699C248.544 350.168 234.968 342.333 227.863 336.887" stroke="#0332FF" stroke-width="12" stroke-miterlimit="10" stroke-linecap="round" stroke-linejoin="round"/>
<path d="M274.676 216.532C257.856 216.81 240.825 225.514 227.488 239.002C216.802 249.809 208.487 263.686 204.551 278.762C196.316 312.511 210.14 338.639 242.457 338.104" stroke="#F6AED5" stroke-width="12" stroke-miterlimit="10" stroke-linecap="round" stroke-linejoin="round"/>
<path d="M204.547 278.759C208.483 263.683 216.798 249.805 227.484 238.999C240.822 225.511 257.853 216.807 274.672 216.529" stroke="#587DFF" stroke-width="12" stroke-miterlimit="10" stroke-linecap="round" stroke-linejoin="round"/>
</g>
<defs>
<clipPath id="clip0_3940_737">
<rect width="400" height="400" fill="white"/>
</clipPath>
</defs>
</svg>
