<svg width="400" height="400" viewBox="0 0 400 400" fill="none" xmlns="http://www.w3.org/2000/svg">
<path fill-rule="evenodd" clip-rule="evenodd" d="M118.553 146.673C117.412 152.802 112.104 160.694 105.91 149.573C101.305 141.306 94.6759 131.915 84.0574 134.411C62.7577 139.414 66.2806 170.175 84.0574 187.268C90.187 193.162 95.6566 197.524 100.217 201.572C109.78 210.063 115.336 217.179 114.558 234.161C114.06 245.037 107.91 259.642 102.809 273.975C96.147 292.699 91.2765 310.957 103.137 319.824C110.305 325.182 118.243 320.464 127.339 315.592C136.433 310.719 146.684 305.693 158.475 310.437C179.419 318.864 176.556 337.834 200.815 339.544C210.053 340.195 216.232 336.742 221.665 332.122C231.396 323.845 238.728 311.822 256.929 312.921C273.832 313.943 287.479 329.78 301.023 319.363C310.088 312.392 302.695 293.018 296.308 271.862C289.747 250.132 284.244 226.524 298.721 212.551C308.248 203.356 315.699 193.489 320.996 184.007C333.865 160.968 334.022 140.196 320.35 136.816C309.411 134.112 301.866 143.529 297.31 151.203C294.151 156.527 286.074 155.26 284.498 149.274C281.351 137.332 277.067 122.934 272.198 111.628C267.112 99.8136 258.944 87.0013 247.656 77.1417C236.368 67.2822 221.958 60.3753 204.389 60.3753C181.051 60.3753 161.567 68.54 146.775 84.3252C133.192 98.8214 123.567 119.745 118.555 146.671L118.553 146.673Z" stroke="#0A41FA" stroke-width="12" stroke-miterlimit="10" stroke-linecap="round"/>
<path d="M158.475 310.437C179.419 318.864 176.556 337.834 200.815 339.544C210.052 340.195 216.232 336.742 221.665 332.122C231.396 323.845 238.728 311.822 256.929 312.921C273.832 313.943 287.479 329.78 301.023 319.363C310.088 312.392 302.695 293.018 296.308 271.862C289.747 250.132 284.244 226.524 298.721 212.551C308.248 203.356 315.699 193.489 320.996 184.007C333.865 160.968 334.022 140.196 320.35 136.816C309.411 134.112 301.866 143.529 297.31 151.203C294.151 156.527 286.074 155.26 284.498 149.274C281.351 137.332 277.067 122.934 272.198 111.628C267.112 99.8136 258.944 87.0013 247.656 77.1417C236.368 67.2822 221.958 60.3753 204.389 60.3753C181.051 60.3753 161.567 68.54 146.775 84.3252" stroke="#587DFF" stroke-width="12" stroke-miterlimit="10" stroke-linecap="round"/>
<path d="M158.475 310.437C179.419 318.864 176.556 337.834 200.815 339.544C210.053 340.195 216.232 336.742 221.665 332.122C231.396 323.845 238.728 311.822 256.929 312.921C273.832 313.943 287.479 329.78 301.023 319.363C310.088 312.392 302.695 293.018 296.308 271.862C289.747 250.132 284.244 226.524 298.721 212.551C308.248 203.356 315.699 193.489 320.996 184.007C333.865 160.968 334.022 140.196 320.35 136.816C309.411 134.112 301.866 143.529 297.31 151.203C294.151 156.527 286.074 155.26 284.498 149.274" stroke="#F6AED5" stroke-width="12" stroke-miterlimit="10" stroke-linecap="round"/>
<path d="M158.475 310.437C179.419 318.864 176.556 337.834 200.815 339.544C210.053 340.195 216.232 336.742 221.665 332.122C231.396 323.845 238.728 311.822 256.929 312.921C273.832 313.943 287.479 329.78 301.023 319.363C310.088 312.392 302.695 293.018 296.308 271.862C289.747 250.132 284.244 226.524 298.721 212.551" stroke="#9DB3FD" stroke-width="12" stroke-miterlimit="10" stroke-linecap="round"/>
<path d="M200.815 339.543C210.052 340.195 216.232 336.742 221.665 332.122C231.396 323.845 238.728 311.822 256.929 312.921C273.832 313.943 287.479 329.78 301.023 319.363" stroke="#AAE3C4" stroke-width="12" stroke-miterlimit="10" stroke-linecap="round"/>
<path d="M184.725 146.613C187.261 135.968 184.013 126.075 177.472 124.515C170.93 122.956 163.572 130.321 161.036 140.965C158.5 151.609 161.748 161.503 168.29 163.062C174.831 164.622 182.19 157.257 184.725 146.613Z" fill="#0A41FA"/>
<path d="M233.375 163.461C240.052 162.661 244.411 153.205 243.11 142.34C241.81 131.475 235.342 123.316 228.665 124.116C221.988 124.916 217.63 134.372 218.93 145.237C220.231 156.102 226.698 164.261 233.375 163.461Z" fill="#0A41FA"/>
<path fill-rule="evenodd" clip-rule="evenodd" d="M216.497 180.376C216.497 192.733 210.342 201.572 202.747 201.572C195.152 201.572 188.996 192.733 188.996 180.376C188.996 168.019 192.702 158.001 202.747 158.001C212.68 158.001 216.497 168.019 216.497 180.376Z" fill="#0A41FA"/>
</svg>
