<svg width="400" height="400" viewBox="0 0 400 400" fill="none" xmlns="http://www.w3.org/2000/svg">
<path d="M111.748 141.228C110.505 147.99 104.703 156.674 97.9408 144.43C92.9112 135.313 85.6777 124.971 74.074 127.722C50.8101 133.241 54.6528 167.129 74.074 185.966C80.7612 192.465 86.7326 197.269 91.7245 201.733C102.16 211.095 108.226 218.931 107.378 237.656C106.832 249.636 100.126 265.742 94.5501 281.527C87.2789 302.154 81.948 322.291 94.908 332.049C102.744 337.945 111.409 332.765 121.337 327.377C131.264 322.009 142.453 316.471 155.338 321.688C178.206 330.975 175.079 351.884 201.564 353.768C211.661 354.484 218.405 350.679 224.338 345.593C234.963 336.476 242.968 323.214 262.842 324.439C281.302 325.569 296.202 343.012 310.99 331.54C320.898 323.855 312.817 302.512 305.847 279.192C298.689 255.25 292.68 229.217 308.484 213.827C318.882 203.692 327.02 192.823 332.803 182.368C346.856 156.976 347.025 134.089 332.087 130.359C320.144 127.383 311.894 137.762 306.921 146.22C303.474 152.078 294.658 150.684 292.925 144.091C289.496 130.924 284.806 115.063 279.494 102.612C273.937 89.5951 265.027 75.4672 252.688 64.5981C240.369 53.7291 224.621 46.1188 205.445 46.1188C179.958 46.1188 158.691 55.123 142.528 72.5098C127.704 88.4837 117.192 111.54 111.711 141.209L111.748 141.228Z" stroke="#0A41FA" stroke-width="12" stroke-miterlimit="10" stroke-linecap="round"/>
<path d="M155.356 321.707C178.225 330.994 175.098 351.903 201.583 353.787C211.68 354.503 218.423 350.698 224.357 345.612C234.981 336.494 242.987 323.233 262.86 324.457C281.321 325.588 296.221 343.031 311.008 331.559C320.916 323.873 312.835 302.531 305.866 279.21C298.707 255.268 292.698 229.235 308.503 213.845C318.901 203.711 327.039 192.842 332.822 182.387C346.874 156.995 347.044 134.107 332.125 130.378C320.182 127.401 311.931 137.781 306.958 146.239C303.511 152.097 294.695 150.703 292.962 144.11C289.534 130.943 284.843 115.082 279.531 102.63C273.974 89.614 265.064 75.4861 252.726 64.617C240.406 53.7479 224.658 46.1377 205.482 46.1377C179.995 46.1377 158.728 55.1419 142.566 72.5286" stroke="#587DFF" stroke-width="12" stroke-miterlimit="10" stroke-linecap="round"/>
<path d="M155.356 321.707C178.225 330.994 175.098 351.903 201.583 353.787C211.68 354.503 218.423 350.698 224.357 345.612C234.981 336.494 242.987 323.233 262.86 324.457C281.321 325.588 296.221 343.031 311.008 331.559C320.917 323.874 312.836 302.531 305.866 279.211C298.708 255.268 292.699 229.235 308.503 213.845C318.901 203.711 327.039 192.842 332.822 182.387C346.874 156.995 347.044 134.107 332.125 130.378C320.182 127.401 311.931 137.781 306.958 146.239C303.511 152.097 294.695 150.703 292.962 144.11" stroke="#F6AED5" stroke-width="12" stroke-miterlimit="10" stroke-linecap="round"/>
<path d="M155.356 321.707C178.225 330.994 175.098 351.903 201.583 353.787C211.68 354.503 218.423 350.698 224.357 345.612C234.981 336.494 242.987 323.233 262.86 324.457C281.321 325.588 296.221 343.031 311.008 331.559C320.917 323.873 312.836 302.531 305.866 279.21C298.708 255.268 292.699 229.235 308.503 213.845" stroke="#9DB3FD" stroke-width="12" stroke-miterlimit="10" stroke-linecap="round"/>
<path d="M201.583 353.787C211.68 354.503 218.423 350.698 224.357 345.612C234.981 336.494 242.987 323.233 262.86 324.458C281.321 325.588 296.221 343.031 311.008 331.559" stroke="#AAE3C4" stroke-width="12" stroke-miterlimit="10" stroke-linecap="round"/>
<path d="M179.374 185.91C179.581 175.945 191.204 168.391 203.485 169.145C214.486 169.823 223.698 177.037 223.792 185.91" stroke="#0A41FA" stroke-width="12" stroke-miterlimit="10" stroke-linecap="round"/>
<path d="M181.22 135.69C180.938 136.085 176.134 142.622 168.279 141.981C162.176 141.473 158.653 136.989 158.069 136.217" stroke="#0A41FA" stroke-width="12" stroke-miterlimit="10" stroke-linecap="round"/>
<path d="M219.93 135.69C220.213 136.085 225.016 142.622 232.872 141.981C238.975 141.473 242.497 136.989 243.081 136.217" stroke="#0A41FA" stroke-width="12" stroke-miterlimit="10" stroke-linecap="round"/>
</svg>
