<svg width="400" height="400" viewBox="0 0 400 400" fill="none" xmlns="http://www.w3.org/2000/svg">
<path d="M345.492 53.0615C345.492 53.0615 357.652 160.562 244.236 280.407L214.532 311.819L94.4026 198.026L124.106 166.614C236.519 47.8426 345.492 53.0615 345.492 53.0615Z" stroke="#0A41FA" stroke-width="12" stroke-linecap="round" stroke-linejoin="round"/>
<path d="M175.757 319.682L88.6503 237.196L117.073 219.579L191.763 290.326L175.757 319.682Z" stroke="#0A41FA" stroke-width="12" stroke-linecap="round" stroke-linejoin="round"/>
<path d="M161.293 130.941C127.566 131.134 93.2093 145.144 67.362 172.435L96.0167 199.534" stroke="#6C8DFC" stroke-width="12" stroke-linecap="round" stroke-linejoin="round"/>
<path d="M277.784 240.782C279.583 274.647 267.476 309.95 241.493 337.385L212.022 309.539" stroke="#6C8DFC" stroke-width="12" stroke-linecap="round" stroke-linejoin="round"/>
<path d="M214.531 311.818L244.235 280.407C260.617 263.096 274.379 246.044 285.936 229.535" stroke="#0A41FA" stroke-width="12" stroke-linecap="round" stroke-linejoin="round"/>
<path d="M345.491 53.0615C345.491 53.0615 350.019 93.0929 327.777 151.532" stroke="#1AB96D" stroke-width="12" stroke-linecap="round" stroke-linejoin="round"/>
<path d="M124.107 166.613C236.519 47.8421 345.492 53.0611 345.492 53.0611C345.492 53.0611 346.939 65.8522 344.179 87.5289" stroke="#AAE3C4" stroke-width="12" stroke-linecap="round" stroke-linejoin="round"/>
<path d="M124.107 166.614C165.659 122.712 206.741 95.7507 242.023 79.2048" stroke="#F6AED5" stroke-width="12" stroke-linecap="round" stroke-linejoin="round"/>
<path d="M79.477 284.132L58.44 306.166" stroke="#CCC7FF" stroke-width="12" stroke-linecap="round"/>
<path d="M89.0522 323.543L68.0152 345.577" stroke="#6C8DFC" stroke-width="12" stroke-linecap="round"/>
<path d="M133.055 335.543L112.018 357.577" stroke="#AAE3C4" stroke-width="12" stroke-linecap="round"/>
<path d="M244.236 280.407L214.532 311.819L94.4029 198.026L124.107 166.614" stroke="#0A41FA" stroke-width="12" stroke-linecap="round" stroke-linejoin="round"/>
<circle cx="256.024" cy="151.533" r="32.0014" stroke="#0A41FA" stroke-width="12"/>
</svg>
