<svg width="400" height="400" viewBox="0 0 400 400" fill="none" xmlns="http://www.w3.org/2000/svg">
<g clip-path="url(#clip0_1520_3288)">
<path d="M147.617 108.271L141.7 107.277L141.692 107.326L141.685 107.376L147.617 108.271ZM193.435 169.682L194.179 163.728L194.171 163.727L194.163 163.726L193.435 169.682ZM82.0093 292.198C82.0788 288.885 79.4495 286.143 76.1365 286.073C72.8236 286.004 70.0815 288.633 70.0119 291.946L82.0093 292.198ZM97.9047 326.568L97.9675 320.569L97.9526 320.569L97.9377 320.569L97.9047 326.568ZM125.992 289.172C125.717 285.869 122.818 283.415 119.515 283.689C116.213 283.964 113.759 286.864 114.033 290.166L125.992 289.172ZM125.22 286.6C123.525 283.752 119.842 282.818 116.995 284.513C114.147 286.208 113.213 289.89 114.908 292.738L125.22 286.6ZM285.1 292.738C286.795 289.89 285.86 286.208 283.013 284.513C280.166 282.818 276.483 283.752 274.788 286.6L285.1 292.738ZM329.998 292.214C330.077 288.901 327.455 286.152 324.142 286.073C320.83 285.995 318.08 288.617 318.002 291.929L329.998 292.214ZM302.106 326.568L302.32 320.572L302.307 320.572L302.294 320.571L302.106 326.568ZM285.965 289.035C285.614 285.739 282.659 283.352 279.364 283.702C276.069 284.053 273.682 287.008 274.032 290.303L285.965 289.035ZM141.685 107.376C141.222 110.444 140.923 113.685 140.923 117.029H152.923C152.923 114.393 153.159 111.76 153.55 109.167L141.685 107.376ZM140.923 117.029C140.923 147.166 163.508 172.069 192.707 175.637L194.163 163.726C170.922 160.886 152.923 141.04 152.923 117.029H140.923ZM192.691 175.635C195.039 175.929 197.48 176.107 200.005 176.107V164.107C198.044 164.107 196.103 163.969 194.179 163.728L192.691 175.635ZM200.005 176.107C232.586 176.107 259.031 149.653 259.031 117.027H247.031C247.031 143.034 225.95 164.107 200.005 164.107V176.107ZM259.031 117.027C259.031 84.3924 232.578 58.0003 200.005 58.0003V70.0003C225.958 70.0003 247.031 91.0277 247.031 117.027H259.031ZM200.005 58.0003C170.695 58.0003 146.396 79.3421 141.7 107.277L153.534 109.266C157.276 87.0046 176.661 70.0003 200.005 70.0003V58.0003ZM82.0092 294.103C82.0092 228.957 134.859 176.107 200.005 176.107V164.107C128.232 164.107 70.0092 222.33 70.0092 294.103H82.0092ZM200.005 176.107C265.15 176.107 318 228.957 318 294.103H330C330 222.33 271.777 164.107 200.005 164.107V176.107ZM70.0119 291.946C69.7718 303.383 73.1896 313.26 78.2603 320.403C83.1481 327.288 90.3023 332.527 97.8717 332.568L97.9377 320.569C95.7882 320.557 91.7817 318.72 88.0454 313.457C84.4919 308.451 81.8222 301.106 82.0093 292.198L70.0119 291.946ZM97.8419 332.568C105.736 332.651 113.339 327.114 118.407 319.75C123.675 312.096 127.014 301.466 125.992 289.172L114.033 290.166C114.827 299.713 112.212 307.586 108.522 312.947C104.632 318.6 100.272 320.593 97.9675 320.569L97.8419 332.568ZM114.908 292.738C115.802 294.239 123.28 306.152 137.33 317.752C151.429 329.392 172.386 340.899 200.004 340.899V328.899C175.931 328.899 157.585 318.912 144.97 308.498C132.307 298.043 125.661 287.341 125.22 286.6L114.908 292.738ZM200.004 340.899C227.622 340.899 248.579 329.392 262.678 317.752C276.728 306.152 284.206 294.239 285.1 292.738L274.788 286.6C274.347 287.341 267.701 298.043 255.038 308.498C242.423 318.912 224.077 328.899 200.004 328.899V340.899ZM318.002 291.929C317.752 302.46 315.427 309.961 312.346 314.583C309.367 319.051 305.849 320.698 302.32 320.572L301.892 332.565C310.325 332.866 317.486 328.506 322.331 321.239C327.073 314.126 329.714 304.165 329.998 292.214L318.002 291.929ZM302.294 320.571C298.137 320.441 294.434 317.348 291.298 310.52C288.257 303.901 286.655 295.53 285.965 289.035L274.032 290.303C274.783 297.371 276.572 307.21 280.393 315.529C284.119 323.64 290.749 332.215 301.918 332.566L302.294 320.571Z" fill="#0A41FA"/>
<path d="M147.617 108.271C147.19 111.101 146.923 114.038 146.923 117.029C146.923 144.103 167.215 166.478 193.435 169.682" stroke="#0A41FA" stroke-width="12" stroke-miterlimit="10" stroke-linecap="round"/>
<path d="M193.435 169.682C195.571 169.949 197.762 170.106 200.005 170.106C229.268 170.106 253.031 146.343 253.031 117.027C253.031 87.7098 229.268 64 200.005 64C173.678 64 151.836 83.173 147.617 108.271" stroke="#0A41FA" stroke-width="12" stroke-miterlimit="10" stroke-linecap="round"/>
<path d="M82.0093 292.197C82.0788 288.884 79.4495 286.142 76.1365 286.073C72.8236 286.003 70.0815 288.633 70.0119 291.945L82.0093 292.197ZM97.9047 326.568L97.9675 320.568L97.9526 320.568L97.9377 320.568L97.9047 326.568ZM125.992 289.171C125.717 285.869 122.818 283.415 119.515 283.689C116.213 283.964 113.759 286.863 114.033 290.166L125.992 289.171ZM125.22 286.6C123.525 283.752 119.842 282.818 116.995 284.513C114.147 286.208 113.213 289.89 114.908 292.737L125.22 286.6ZM200.004 340.899C203.318 340.899 206.004 338.212 206.004 334.899C206.004 331.585 203.318 328.899 200.004 328.899V340.899ZM116.991 210.263C119.345 207.932 119.364 204.133 117.032 201.778C114.701 199.424 110.902 199.405 108.547 201.737L116.991 210.263ZM70.0119 291.945C69.7718 303.382 73.1896 313.26 78.2603 320.402C83.1481 327.288 90.3023 332.526 97.8717 332.568L97.9377 320.568C95.7882 320.556 91.7817 318.719 88.0454 313.456C84.4919 308.45 81.8222 301.106 82.0093 292.197L70.0119 291.945ZM97.8419 332.568C105.736 332.65 113.339 327.114 118.407 319.75C123.675 312.096 127.014 301.465 125.992 289.171L114.033 290.166C114.827 299.712 112.212 307.585 108.522 312.947C104.632 318.6 100.272 320.593 97.9675 320.568L97.8419 332.568ZM114.908 292.737C115.802 294.239 123.28 306.152 137.33 317.751C151.429 329.391 172.386 340.899 200.004 340.899V328.899C175.931 328.899 157.585 318.912 144.97 308.498C132.307 298.043 125.661 287.341 125.22 286.6L114.908 292.737ZM82.0092 294.102C82.0092 261.32 95.3848 231.659 116.991 210.263L108.547 201.737C84.7603 225.291 70.0092 257.985 70.0092 294.102H82.0092Z" fill="#F6AED5"/>
<path d="M82.0093 292.197C82.0788 288.884 79.4495 286.142 76.1365 286.073C72.8236 286.003 70.0815 288.633 70.0119 291.945L82.0093 292.197ZM97.9047 326.568L97.9675 320.568L97.9526 320.568L97.9377 320.568L97.9047 326.568ZM125.992 289.171C125.717 285.869 122.818 283.415 119.515 283.689C116.213 283.964 113.759 286.863 114.033 290.166L125.992 289.171ZM125.22 286.6C123.525 283.752 119.842 282.818 116.995 284.513C114.147 286.208 113.213 289.89 114.908 292.737L125.22 286.6ZM148.816 326.049C151.625 327.807 155.327 326.955 157.086 324.147C158.844 321.338 157.992 317.636 155.184 315.877L148.816 326.049ZM84.6305 269.258C85.3252 266.018 83.2618 262.828 80.0217 262.133C76.7817 261.439 73.5919 263.502 72.8971 266.742L84.6305 269.258ZM70.0119 291.945C69.7718 303.382 73.1896 313.26 78.2603 320.402C83.1481 327.288 90.3023 332.526 97.8717 332.568L97.9377 320.568C95.7882 320.556 91.7817 318.719 88.0454 313.456C84.4919 308.45 81.8222 301.106 82.0093 292.197L70.0119 291.945ZM97.8419 332.568C105.736 332.65 113.339 327.114 118.407 319.75C123.675 312.096 127.014 301.465 125.992 289.171L114.033 290.166C114.827 299.712 112.212 307.585 108.522 312.947C104.632 318.6 100.272 320.593 97.9675 320.568L97.8419 332.568ZM114.908 292.737C115.982 294.542 127.286 312.57 148.816 326.049L155.184 315.877C135.92 303.817 125.805 287.583 125.22 286.6L114.908 292.737ZM82.0092 294.102C82.0092 285.574 82.9139 277.263 84.6305 269.258L72.8971 266.742C71.0045 275.569 70.0092 284.723 70.0092 294.102H82.0092Z" fill="#1AB96D"/>
<path d="M329.998 292.214C330.077 288.901 327.455 286.152 324.142 286.073C320.83 285.995 318.08 288.616 318.002 291.929L329.998 292.214ZM302.106 326.568L302.32 320.572L302.307 320.572L302.294 320.571L302.106 326.568ZM285.964 289.034C285.614 285.739 282.659 283.352 279.364 283.702C276.069 284.052 273.681 287.008 274.032 290.303L285.964 289.034ZM313.721 231.085C312.111 228.189 308.459 227.145 305.562 228.754C302.665 230.363 301.621 234.016 303.23 236.913L313.721 231.085ZM318.002 291.929C317.751 302.46 315.427 309.961 312.346 314.582C309.367 319.051 305.849 320.698 302.32 320.572L301.892 332.564C310.324 332.866 317.486 328.505 322.33 321.239C327.073 314.125 329.714 304.165 329.998 292.214L318.002 291.929ZM302.294 320.571C298.137 320.441 294.434 317.348 291.298 310.52C288.257 303.9 286.655 295.53 285.964 289.034L274.032 290.303C274.783 297.371 276.572 307.21 280.393 315.529C284.119 323.64 290.749 332.215 301.918 332.565L302.294 320.571ZM303.23 236.913C312.639 253.85 318 273.344 318 294.103H330C330 271.252 324.093 249.759 313.721 231.085L303.23 236.913Z" fill="#9DB3FD"/>
</g>
<defs>
<clipPath id="clip0_1520_3288">
<rect width="400" height="400" fill="white"/>
</clipPath>
</defs>
</svg>
